<svg width="101" height="126" viewBox="0 0 101 126" fill="none" xmlns="http://www.w3.org/2000/svg">
<path d="M31.346 8.60827C40.7545 8.60827 47.8488 19.4204 40.7729 19.4756C28.2299 19.563 37.6383 10.1726 31.346 8.60827Z" fill="#E637B7"/>
<path d="M44.032 7.04396C56.4782 7.04396 60.5347 17.8561 53.4634 17.9067C40.8974 17.9987 50.3058 8.60827 44.032 7.04396Z" fill="#E637B7"/>
<path d="M21.9561 10.1726C21.9561 10.1726 28.2299 13.3058 23.5095 19.563C18.7892 25.8202 21.9422 25.8248 25.0768 25.8248C28.2114 25.8248 31.346 10.1726 21.9561 10.1726Z" fill="#E637B7"/>
<path d="M50.2044 38.215H18.8583V85.1717C18.8583 100.787 46.9776 100.815 50.2044 100.815C53.4312 100.815 81.5504 100.778 81.5504 85.1717V38.215H50.2044Z" fill="white"/>
<path d="M81.5458 32.0866C81.26 16.6138 69.0028 3.91076 43.9121 7.04396C47.0467 7.04396 56.4551 10.1726 56.4551 16.4344C54.8878 10.1726 40.7821 7.04396 31.3645 8.61287C32.9318 8.61287 37.6383 10.1772 37.6383 16.4344C32.9318 10.1726 31.346 10.1726 21.956 10.1726C28.2299 11.7369 28.2299 19.563 25.0907 22.6962C23.5233 24.2605 21.956 19.563 23.5233 14.8747C18.8168 19.563 15.673 25.8248 18.8168 32.0866C15.6822 35.2152 14.1149 47.7296 14.1149 47.7296V60.2717H21.9514C21.9514 60.2717 21.9514 44.6286 25.086 41.4908C28.2206 38.353 37.6337 41.4908 50.1767 41.4908C62.7197 41.4908 72.1328 38.3622 75.2674 41.4908C78.402 44.6194 78.4112 60.2717 78.4112 60.2717H86.2477V47.7388C86.2477 47.7388 84.685 35.2152 81.5458 32.0866Z" fill="#FF64C4"/>
<path d="M87.8196 88.4705L81.827 88.4337C81.9699 87.0903 81.8869 86.0137 81.532 85.3051C81.532 88.4337 75.2581 94.6955 65.8589 94.6955C59.5851 94.6955 53.3159 72.7815 50.1859 72.7815C47.0559 72.7815 40.7775 94.6955 34.5129 94.6955C25.1045 94.6955 18.8399 88.4337 18.8399 85.3051C18.4849 86.0137 18.3789 87.0903 18.5495 88.4337L12.5569 88.4705V93.1312H19.5959C23.4127 105.356 35.9926 126 43.9121 126H56.4551C64.37 126 76.9499 105.356 80.7714 93.1312H87.8196V88.4705Z" fill="black"/>
<path d="M29.7972 93.1312L32.9318 89.998C40.7683 97.8195 40.7683 97.8195 40.7683 100.957C40.7683 104.095 40.7038 113.453 40.7268 116.6C40.7729 122.844 34.4991 122.844 31.346 122.844C30.2397 122.844 30.2397 119.734 31.346 119.734C34.4622 119.734 37.6014 119.734 37.606 116.605C37.606 110.343 37.606 107.247 37.606 104.104C37.606 100.962 37.6383 100.957 29.7972 93.1312Z" fill="#149EF2"/>
<path d="M28.2299 125.977C31.3645 125.977 34.4991 126 34.4806 119.715C34.4806 116.596 34.4806 116.605 34.4806 113.476C34.4806 107.215 34.4806 107.215 25.0722 97.8334C12.5292 85.3143 9.46835 85.2361 6.25538 88.4429C3.04241 91.6498 3.12077 91.5715 3.12077 100.967C3.12077 110.362 18.8168 125.977 28.2299 125.977Z" fill="#FF64C4"/>
<path d="M28.2299 126C31.3645 126 31.3645 122.848 31.3645 119.729V113.476C31.346 107.201 31.346 107.201 25.0907 100.957C15.673 91.5577 9.48678 85.2269 6.27381 88.4337C3.06084 91.6406 3.13921 91.5623 3.13921 100.957C3.13921 110.352 18.8168 126 28.2299 126Z" fill="black"/>
<path d="M21.9561 124.431C28.4696 124.431 28.2253 122.867 28.2253 119.738V116.605C28.2253 110.348 28.2253 107.215 25.0907 104.086C15.673 94.6955 9.48678 88.3371 6.27382 91.5577C0 97.8241 0 97.8241 0 100.957C0 104.091 0 105.765 0 107.201C0 111.535 1.6595 113.72 6.26921 116.591C18.8168 124.431 18.8168 124.431 21.9561 124.431Z" fill="#FF64C4"/>
<path d="M27.3033 86.2253L25.4594 88.0657C25.2147 88.3096 25.0771 88.6406 25.0768 88.9858V90.0118L25.8605 89.2297L26.6441 90.0118L28.216 91.5761L31.3506 88.4475L29.138 86.2391C28.8956 85.9962 28.567 85.8585 28.2235 85.8559C27.88 85.8533 27.5494 85.9861 27.3033 86.2253Z" fill="#149EF2"/>
<path d="M25.7591 89.1009L26.658 90.021L25.0907 91.5853V89.3999C25.086 89.3207 25.1057 89.242 25.1469 89.1742C25.1881 89.1065 25.249 89.0528 25.3215 89.0203C25.394 88.9879 25.4747 88.9782 25.5529 88.9926C25.631 89.007 25.7029 89.0447 25.7591 89.1009Z" fill="#000672"/>
<path d="M31.6806 88.1137L27.9028 91.8843C27.6472 92.1395 27.6472 92.5531 27.9028 92.8083L30.1128 95.014C30.3684 95.2691 30.7829 95.2691 31.0385 95.014L34.8163 91.2434C35.072 90.9883 35.0719 90.5746 34.8163 90.3195L32.6063 88.1137C32.3507 87.8586 31.9363 87.8586 31.6806 88.1137Z" fill="black"/>
<path d="M32.1467 89.2166L29.011 92.3463L30.5789 93.9111L33.7146 90.7814L32.1467 89.2166Z" fill="#149EF2"/>
<path d="M20.3888 124.431C21.9561 124.431 21.9561 124.431 21.9561 116.61C21.9561 110.352 21.9561 110.352 12.5476 100.967C4.71112 93.145 0 96.269 0 100.967C0 104.095 0 105.774 0 107.224C0 111.558 1.6595 113.743 6.26921 116.614C18.8168 124.431 18.8168 124.431 20.3888 124.431Z" fill="#149EF2"/>
<path d="M37.6383 99.3885C38.5039 99.3885 39.2056 98.6881 39.2056 97.8242C39.2056 96.9602 38.5039 96.2599 37.6383 96.2599C36.7727 96.2599 36.071 96.9602 36.071 97.8242C36.071 98.6881 36.7727 99.3885 37.6383 99.3885Z" fill="white"/>
<path d="M37.6383 98.7627C38.1576 98.7627 38.5787 98.3425 38.5787 97.8241C38.5787 97.3058 38.1576 96.8856 37.6383 96.8856C37.1189 96.8856 36.6979 97.3058 36.6979 97.8241C36.6979 98.3425 37.1189 98.7627 37.6383 98.7627Z" fill="black"/>
<path d="M7.83651 72.7815V57.1385C7.83651 57.1385 1.5627 57.1385 1.5627 64.96C1.5627 72.7815 7.83651 72.7815 7.83651 72.7815Z" fill="#149EF2"/>
<path d="M6.27382 54.0007C6.27382 52.4364 10.9757 50.8767 10.9757 52.4364V77.479C10.9757 79.0341 6.27382 77.479 6.27382 75.9101V54.0007Z" fill="#FF64C4"/>
<path d="M61.6825 0H38.6847C31.5471 0.00730783 24.704 2.84051 19.657 7.87788C14.6099 12.9152 11.7713 19.7453 11.764 26.8692V50.8675H13.3313V26.8692C13.3386 20.1602 16.0121 13.728 20.7652 8.98401C25.5183 4.24 31.9628 1.57161 38.6847 1.5643H61.6825C68.4044 1.57161 74.8489 4.24 79.602 8.98401C84.3551 13.728 87.0286 20.1602 87.0359 26.8692V50.8675H88.6032V26.8692C88.5947 19.7457 85.7557 12.9163 80.7089 7.87922C75.6622 2.84211 68.8197 0.00852317 61.6825 0V0Z" fill="white"/>
<path d="M92.5261 72.7815V57.1385C92.5261 57.1385 98.7953 57.1385 98.7953 64.96C98.7953 72.7815 92.5261 72.7815 92.5261 72.7815Z" fill="#149EF2"/>
<path d="M94.0934 54.0007C94.0934 52.4364 89.3869 50.8767 89.3869 52.4364V77.479C89.3869 79.0341 94.0934 77.479 94.0934 75.9101V54.0007Z" fill="#FF64C4"/>
<path d="M18.8168 116.605C18.8168 110.348 18.8168 110.348 12.5476 104.086C6.27842 97.8241 3.13921 97.8241 3.13921 104.086C3.13921 110.348 3.13921 110.348 9.40841 115.041C15.6776 119.734 18.8168 122.867 18.8168 116.605Z" fill="black"/>
<path d="M70.5701 93.1312L67.4309 89.998C59.5944 97.8195 59.5944 97.8195 59.5944 100.957C59.5944 104.095 59.6635 113.453 59.6405 116.6C59.5898 122.844 65.8636 122.844 69.0028 122.844C70.1045 122.844 70.1045 119.734 69.0028 119.734C65.8866 119.734 62.7428 119.734 62.7382 116.605C62.7382 110.343 62.7382 107.247 62.7382 104.104C62.7382 100.962 62.729 100.957 70.5701 93.1312Z" fill="#149EF2"/>
<path d="M72.1374 125.977C69.0028 125.977 65.8636 126 65.8866 119.715C65.8866 116.596 65.8636 116.605 65.8636 113.476C65.8636 107.215 65.8636 107.215 75.272 97.8334C87.8196 85.3143 90.8805 85.2361 94.0934 88.4429C97.3064 91.6498 97.228 91.5715 97.228 100.967C97.228 110.362 81.5458 125.977 72.1374 125.977Z" fill="#FF64C4"/>
<path d="M72.1374 126C69.0028 126 69.0028 122.848 69.0028 119.729V113.476C69.0028 107.215 69.0028 107.215 75.272 100.957C84.685 91.5623 90.8805 85.2269 94.0934 88.4337C97.3064 91.6406 97.228 91.5623 97.228 100.957C97.228 110.352 81.5458 126 72.1374 126Z" fill="black"/>
<path d="M78.4112 124.431C71.8977 124.431 72.1374 122.867 72.1374 119.738V116.605C72.1374 110.348 72.1374 107.215 75.2766 104.086C84.685 94.6955 90.8804 88.3371 94.0934 91.5577C100.367 97.8195 100.367 97.8195 100.367 100.953C100.367 104.086 100.367 105.761 100.367 107.21C100.367 111.544 98.7031 113.729 94.098 116.6C81.5458 124.431 81.5458 124.431 78.4112 124.431Z" fill="#FF64C4"/>
<path d="M73.0639 86.2253L74.9078 88.0657C75.0298 88.1859 75.1265 88.3292 75.1922 88.4872C75.2579 88.6452 75.2913 88.8148 75.2904 88.9859V90.0118L74.5068 89.2297L73.7231 90.0118L72.1558 91.5761L69.0212 88.4475L71.2339 86.2391C71.4761 85.9976 71.8037 85.8608 72.1461 85.8582C72.4884 85.8556 72.8181 85.9875 73.0639 86.2253Z" fill="#149EF2"/>
<path d="M74.6036 89.1009L73.6816 90.021L75.2489 91.5853V89.3999C75.2491 89.3252 75.2278 89.252 75.1876 89.189C75.1474 89.126 75.09 89.0758 75.0221 89.0443C74.9542 89.0129 74.8787 89.0015 74.8045 89.0115C74.7304 89.0215 74.6606 89.0525 74.6036 89.1009Z" fill="#000672"/>
<path d="M67.7568 88.1113L65.5468 90.3171C65.2912 90.5722 65.2912 90.9859 65.5468 91.241L69.3246 95.0116C69.5802 95.2667 69.9947 95.2667 70.2503 95.0116L72.4603 92.8058C72.7159 92.5507 72.7159 92.137 72.4603 91.8819L68.6825 88.1113C68.4268 87.8562 68.0124 87.8562 67.7568 88.1113Z" fill="black"/>
<path d="M68.2163 89.2142L66.6485 90.779L69.7842 93.9087L71.352 92.3439L68.2163 89.2142Z" fill="#149EF2"/>
<path d="M79.9785 124.431C78.4112 124.431 78.4112 124.431 78.4112 116.61C78.4112 110.352 78.4112 110.352 87.8196 100.967C95.6561 93.145 100.367 96.269 100.367 100.967C100.367 104.095 100.367 105.774 100.367 107.224C100.367 111.558 98.7031 113.743 94.098 116.614C81.5458 124.431 81.5458 124.431 79.9785 124.431Z" fill="#149EF2"/>
<path d="M62.729 99.3885C63.5946 99.3885 64.2963 98.6881 64.2963 97.8242C64.2963 96.9602 63.5946 96.2599 62.729 96.2599C61.8634 96.2599 61.1617 96.9602 61.1617 97.8242C61.1617 98.6881 61.8634 99.3885 62.729 99.3885Z" fill="white"/>
<path d="M62.729 98.7627C63.2483 98.7627 63.6693 98.3425 63.6693 97.8241C63.6693 97.3058 63.2483 96.8856 62.729 96.8856C62.2096 96.8856 61.7886 97.3058 61.7886 97.8241C61.7886 98.3425 62.2096 98.7627 62.729 98.7627Z" fill="black"/>
<path d="M81.5458 116.605C81.5458 110.348 81.5458 110.348 87.8196 104.086C94.0934 97.8241 97.228 97.8241 97.228 104.086C97.228 110.348 97.228 110.348 90.9542 115.041C84.6804 119.734 81.5458 122.867 81.5458 116.605Z" fill="black"/>
<path d="M42.3402 113.476H58.0132V96.1586C58.0104 92.1079 57.0635 88.1133 55.2474 84.4908L52.1128 78.2152C52.0038 77.9986 51.8365 77.8168 51.6297 77.69C51.4228 77.5632 51.1846 77.4965 50.9419 77.4974H49.4207C49.1786 77.4968 48.9412 77.5637 48.7351 77.6905C48.5291 77.8173 48.3626 77.999 48.2544 78.2152L45.1014 84.5092C43.2834 88.131 42.3363 92.126 42.3356 96.177L42.3402 113.476Z" fill="#FF64C4"/>
<path d="M53.3205 121.302H47.0467C43.9121 121.302 42.3433 119.737 42.3402 116.605V110.325C42.3402 107.215 43.9121 105.65 47.0237 105.65H53.3205C56.4551 105.65 58.0224 107.215 58.0224 110.325V116.628C58.0224 119.738 56.4551 121.302 53.3205 121.302Z" fill="#149EF2"/>
<path d="M50.1813 119.738C53.6463 119.738 56.4551 116.935 56.4551 113.476C56.4551 110.018 53.6463 107.215 50.1813 107.215C46.7164 107.215 43.9075 110.018 43.9075 113.476C43.9075 116.935 46.7164 119.738 50.1813 119.738Z" fill="black"/>
<path d="M53.7077 110.421C53.6524 110.477 53.6187 110.551 53.6128 110.629C53.6069 110.708 53.6291 110.786 53.6755 110.849C54.2498 111.605 54.5606 112.528 54.5606 113.476C54.5606 114.425 54.2498 115.348 53.6755 116.103C53.6282 116.167 53.6054 116.245 53.6113 116.323C53.6173 116.402 53.6515 116.476 53.7077 116.531C53.7403 116.564 53.7795 116.59 53.8227 116.606C53.8659 116.623 53.9121 116.63 53.9583 116.627C54.0044 116.625 54.0495 116.612 54.0906 116.591C54.1316 116.57 54.1677 116.54 54.1964 116.504C54.857 115.633 55.2146 114.571 55.2146 113.479C55.2146 112.386 54.857 111.324 54.1964 110.454C54.168 110.417 54.1322 110.387 54.0913 110.365C54.0505 110.344 54.0055 110.331 53.9593 110.328C53.9131 110.325 53.8668 110.332 53.8235 110.348C53.7801 110.364 53.7407 110.389 53.7077 110.421Z" fill="white"/>
<path d="M47.1205 109.961C47.1766 110.017 47.2509 110.05 47.3297 110.055C47.4084 110.06 47.4864 110.037 47.5492 109.989C48.3075 109.416 49.2326 109.106 50.1836 109.106C51.1347 109.106 52.0597 109.416 52.8181 109.989C52.8801 110.036 52.9573 110.06 53.0353 110.055C53.1133 110.05 53.1868 110.016 53.2422 109.961C53.275 109.929 53.3005 109.89 53.317 109.847C53.3335 109.803 53.3407 109.757 53.3381 109.711C53.3355 109.665 53.3231 109.62 53.3018 109.579C53.2805 109.538 53.2508 109.502 53.2145 109.474C52.3422 108.814 51.2779 108.457 50.1836 108.457C49.0894 108.457 48.0251 108.814 47.1527 109.474C47.1162 109.502 47.086 109.538 47.0643 109.578C47.0426 109.619 47.0298 109.664 47.0267 109.71C47.0237 109.756 47.0305 109.802 47.0466 109.846C47.0628 109.889 47.088 109.928 47.1205 109.961Z" fill="white"/>
<path d="M53.2422 116.991C53.1868 116.936 53.1133 116.903 53.0353 116.898C52.9573 116.893 52.8801 116.916 52.8181 116.964C52.0597 117.537 51.1347 117.847 50.1836 117.847C49.2326 117.847 48.3075 117.537 47.5492 116.964C47.4864 116.916 47.4084 116.893 47.3297 116.898C47.2509 116.903 47.1766 116.936 47.1205 116.991C47.088 117.024 47.0628 117.064 47.0466 117.107C47.0305 117.15 47.0237 117.196 47.0267 117.243C47.0298 117.289 47.0426 117.334 47.0643 117.374C47.086 117.415 47.1162 117.451 47.1527 117.479C48.0238 118.141 49.0886 118.5 50.1836 118.5C51.2787 118.5 52.3434 118.141 53.2145 117.479C53.2508 117.45 53.2805 117.415 53.3018 117.374C53.3231 117.333 53.3355 117.288 53.3381 117.242C53.3407 117.195 53.3335 117.149 53.317 117.106C53.3005 117.063 53.275 117.024 53.2422 116.991Z" fill="white"/>
<path d="M46.6595 116.531C46.7159 116.476 46.7499 116.402 46.755 116.323C46.7601 116.244 46.736 116.166 46.6871 116.103C46.1157 115.346 45.8067 114.424 45.8067 113.476C45.8067 112.528 46.1157 111.606 46.6871 110.849C46.736 110.787 46.7601 110.709 46.755 110.63C46.7499 110.551 46.7159 110.477 46.6595 110.421C46.6266 110.389 46.5871 110.364 46.5438 110.348C46.5004 110.332 46.4541 110.325 46.4079 110.328C46.3617 110.331 46.3167 110.344 46.2759 110.365C46.235 110.387 46.1992 110.417 46.1709 110.454C45.5102 111.324 45.1526 112.386 45.1526 113.479C45.1526 114.571 45.5102 115.633 46.1709 116.504C46.1996 116.54 46.2356 116.57 46.2767 116.591C46.3177 116.612 46.3628 116.625 46.409 116.627C46.4551 116.63 46.5013 116.623 46.5445 116.606C46.5877 116.59 46.6269 116.564 46.6595 116.531Z" fill="white"/>
<path d="M45.3504 104.086H55.0307C55.214 104.086 55.3952 104.048 55.5627 103.974C55.7301 103.9 55.8801 103.791 56.0027 103.655C56.1253 103.52 56.2179 103.359 56.2744 103.186C56.3309 103.012 56.3501 102.828 56.3307 102.646C55.9342 98.91 54.6297 89.0502 51.7671 86.8694C51.1401 86.4093 49.2502 86.4093 48.6279 86.8694C45.7652 89.0502 44.4791 98.91 44.0642 102.646C44.0449 102.827 44.0637 103.009 44.1194 103.182C44.1751 103.355 44.2665 103.515 44.3876 103.65C44.5087 103.786 44.657 103.895 44.8228 103.97C44.9886 104.045 45.1683 104.084 45.3504 104.086Z" fill="#149EF2"/>
<path d="M45.7375 101.279C45.652 101.279 45.5699 101.245 45.5094 101.185C45.4489 101.125 45.4149 101.043 45.4149 100.957C45.4282 100.12 45.4913 99.2843 45.6039 98.4545C45.609 98.412 45.6225 98.371 45.6436 98.3339C45.6648 98.2967 45.6931 98.2641 45.727 98.238C45.7609 98.2119 45.7997 98.1927 45.8411 98.1817C45.8824 98.1707 45.9256 98.168 45.968 98.1738C46.0107 98.179 46.052 98.1924 46.0894 98.2135C46.1269 98.2345 46.1598 98.2627 46.1864 98.2965C46.2129 98.3302 46.2325 98.3689 46.2441 98.4102C46.2557 98.4515 46.259 98.4947 46.2538 98.5373C46.1417 99.3394 46.0786 100.148 46.0648 100.957C46.0648 101 46.0563 101.042 46.0398 101.082C46.0233 101.121 45.9991 101.157 45.9687 101.187C45.9382 101.217 45.9021 101.24 45.8624 101.256C45.8228 101.272 45.7803 101.28 45.7375 101.279ZM46.0971 97.5389H46.0464C46.0038 97.5328 45.9628 97.5182 45.926 97.496C45.8891 97.4738 45.8571 97.4445 45.8317 97.4098C45.8064 97.375 45.7882 97.3356 45.7784 97.2938C45.7686 97.252 45.7672 97.2086 45.7744 97.1662C46.2077 94.4701 47.2956 89.5472 48.6278 88.2175C48.6906 88.1653 48.7706 88.1384 48.8522 88.142C48.9338 88.1457 49.0111 88.1797 49.0689 88.2374C49.1266 88.295 49.1607 88.3722 49.1644 88.4536C49.1681 88.5351 49.1411 88.615 49.0888 88.6776C48.0793 89.6852 46.9822 93.7386 46.4198 97.2674C46.4059 97.343 46.3661 97.4114 46.3072 97.461C46.2484 97.5105 46.1741 97.538 46.0971 97.5389Z" fill="white"/>
<path d="M83.3113 94.6956H82.9195V122.825H83.3113V94.6956Z" fill="white"/>
<path d="M84.8786 94.6956H84.4868V122.825H84.8786V94.6956Z" fill="white"/>
<path d="M86.4459 94.6956H86.0541V122.825H86.4459V94.6956Z" fill="white"/>
<path d="M88.0132 94.6956H87.6214V122.825H88.0132V94.6956Z" fill="white"/>
<path d="M89.5851 94.6956H89.1933V122.825H89.5851V94.6956Z" fill="white"/>
<path d="M91.1524 94.6956H90.7606V122.825H91.1524V94.6956Z" fill="white"/>
<path d="M92.7197 94.6956H92.3279V122.825H92.7197V94.6956Z" fill="white"/>
<path d="M94.287 94.6956H93.8952V122.825H94.287V94.6956Z" fill="white"/>
<path d="M95.8544 94.6956H95.4625V122.825H95.8544V94.6956Z" fill="white"/>
<path d="M17.4478 94.6956H17.0559V122.825H17.4478V94.6956Z" fill="white"/>
<path d="M15.8758 94.6956H15.484V122.825H15.8758V94.6956Z" fill="white"/>
<path d="M14.3085 94.6956H13.9167V122.825H14.3085V94.6956Z" fill="white"/>
<path d="M12.7413 94.6956H12.3494V122.825H12.7413V94.6956Z" fill="white"/>
<path d="M11.1739 94.6956H10.7821V122.825H11.1739V94.6956Z" fill="white"/>
<path d="M9.60664 94.6956H9.21481V122.825H9.60664V94.6956Z" fill="white"/>
<path d="M8.03933 94.6956H7.64751V122.825H8.03933V94.6956Z" fill="white"/>
<path d="M6.46743 94.6956H6.07561V122.825H6.46743V94.6956Z" fill="white"/>
<path d="M4.90013 94.6956H4.5083V122.825H4.90013V94.6956Z" fill="white"/>
<path d="M90.9542 50.8675C90.9542 47.7388 81.5458 45.2636 81.5458 47.7388V82.1719C81.5458 84.6472 90.9542 82.1719 90.9542 79.0433V50.8675Z" fill="black"/>
<path d="M84.685 85.3005H87.8196V44.6056H84.685V85.3005Z" fill="#149EF2"/>
<path d="M9.40842 50.8675C9.40842 47.7388 18.8168 45.2636 18.8168 47.7388V82.1719C18.8168 84.6472 9.40842 82.1719 9.40842 79.0433V50.8675Z" fill="black"/>
<path d="M15.6822 44.6102H12.5476V85.3051H15.6822V44.6102Z" fill="#149EF2"/>
<path d="M50.1813 57.1293C34.3193 57.1293 18.8353 60.2579 18.8353 60.2579V74.3458H20.4072L21.9745 79.0433H40.7729C43.9121 66.5197 43.9121 66.5197 50.1813 66.5197C56.4505 66.5197 56.4551 66.5197 59.5897 79.0433H78.4112L79.9785 74.3458H81.5458V60.2717C81.5458 60.2717 66.0479 57.1293 50.1813 57.1293Z" fill="#000672"/>
<path d="M34.6789 66.3403V72.9609H28.0501V66.3403H34.6789ZM36.6426 64.3849H26.0863V74.9163H36.6426V64.3849Z" fill="#149EF2"/>
<path d="M69.0028 67.4905L71.9806 72.9609H66.0249L69.0028 67.4905ZM69.0028 63.3911L62.7289 74.9163H75.272L69.0028 63.3911Z" fill="#149EF2"/>
<path d="M75.272 55.565C76.8439 55.565 72.1374 52.4364 70.5701 52.4364C67.3433 52.4364 58.0224 54.0007 58.0224 55.7168C58.0224 57.1293 59.5897 60.2579 61.1616 60.2579C62.7336 60.2579 67.4308 55.565 75.272 55.565Z" fill="#E05AB7"/>
<path d="M25.0907 55.565C23.5233 55.565 28.2299 52.4364 29.7972 52.4364C33.024 52.4364 42.3402 54.0007 42.3402 55.7168C42.3402 57.1293 40.7729 60.2579 39.2056 60.2579C37.6383 60.2579 32.9318 55.565 25.0907 55.565Z" fill="#E05AB7"/>
<path d="M75.272 34.1386H18.8399V38.3714H75.272V34.1386Z" fill="#FF64C4"/>
<path d="M75.272 33.6647H18.8399V34.1386H75.272V33.6647Z" fill="#FF64C4"/>
<path d="M75.272 33.1908H18.8399V33.6647H75.272V33.1908Z" fill="#FE63C4"/>
<path d="M75.272 32.7169H18.8399V33.1908H75.272V32.7169Z" fill="#FE62C3"/>
<path d="M75.272 32.2476H18.8399V32.7215H75.272V32.2476Z" fill="#FD61C3"/>
<path d="M75.272 31.7738H18.8399V32.2476H75.272V31.7738Z" fill="#FD60C3"/>
<path d="M75.272 31.2999H18.8399V31.7738H75.272V31.2999Z" fill="#FC5FC3"/>
<path d="M75.272 30.826H18.8399V31.2999H75.272V30.826Z" fill="#FC5EC2"/>
<path d="M75.272 30.3521H18.8399V30.826H75.272V30.3521Z" fill="#FB5DC2"/>
<path d="M75.272 29.8828H18.8399V30.3567H75.272V29.8828Z" fill="#FA5CC2"/>
<path d="M75.272 29.4089H18.8399V29.8828H75.272V29.4089Z" fill="#FA5BC1"/>
<path d="M75.272 28.935H18.8399V29.4089H75.272V28.935Z" fill="#F95AC1"/>
<path d="M75.272 28.4611H18.8399V28.935H75.272V28.4611Z" fill="#F959C1"/>
<path d="M75.272 27.9918H18.8399V28.4657H75.272V27.9918Z" fill="#F858C0"/>
<path d="M75.272 27.5179H18.8399V27.9918H75.272V27.5179Z" fill="#F857C0"/>
<path d="M75.272 27.044H18.8399V27.5179H75.272V27.044Z" fill="#F756C0"/>
<path d="M75.272 26.5701H18.8399V27.044H75.272V26.5701Z" fill="#F655C0"/>
<path d="M75.272 26.0963H18.8399V26.5701H75.272V26.0963Z" fill="#F654BF"/>
<path d="M75.272 25.627H18.8399V26.1009H75.272V25.627Z" fill="#F553BF"/>
<path d="M75.272 25.1531H18.8399V25.627H75.272V25.1531Z" fill="#F552BF"/>
<path d="M75.272 24.6792H18.8399V25.1531H75.272V24.6792Z" fill="#F451BE"/>
<path d="M75.272 24.2053H18.8399V24.6792H75.272V24.2053Z" fill="#F450BE"/>
<path d="M75.272 23.7314H18.8399V24.2053H75.272V23.7314Z" fill="#F34FBE"/>
<path d="M75.272 23.2621H18.8399V23.736H75.272V23.2621Z" fill="#F34EBE"/>
<path d="M75.272 22.7882H18.8399V23.2621H75.272V22.7882Z" fill="#F24CBD"/>
<path d="M75.272 22.3143H18.8399V22.7882H75.272V22.3143Z" fill="#F14BBD"/>
<path d="M75.272 21.8404H18.8399V22.3143H75.272V21.8404Z" fill="#F14ABD"/>
<path d="M75.272 21.3711H18.8399V21.845H75.272V21.3711Z" fill="#F049BC"/>
<path d="M75.272 20.8972H18.8399V21.3711H75.272V20.8972Z" fill="#F048BC"/>
<path d="M75.272 20.4234H18.8399V20.8972H75.272V20.4234Z" fill="#EF47BC"/>
<path d="M75.272 19.9495H18.8399V20.4234H75.272V19.9495Z" fill="#EF46BB"/>
<path d="M75.272 19.4756H18.8399V19.9495H75.272V19.4756Z" fill="#EE45BB"/>
<path d="M75.272 19.0063H18.8399V19.4802H75.272V19.0063Z" fill="#ED44BB"/>
<path d="M75.272 18.5324H18.8399V19.0063H75.272V18.5324Z" fill="#ED43BB"/>
<path d="M75.272 18.0585H18.8399V18.5324H75.272V18.0585Z" fill="#EC42BA"/>
<path d="M75.272 17.5846H18.8399V18.0585H75.272V17.5846Z" fill="#EC41BA"/>
<path d="M75.272 17.1153H18.8399V17.5892H75.272V17.1153Z" fill="#EB40BA"/>
<path d="M75.272 16.6414H18.8399V17.1153H75.272V16.6414Z" fill="#EB3FB9"/>
<path d="M75.272 16.1675H18.8399V16.6414H75.272V16.1675Z" fill="#EA3EB9"/>
<path d="M75.272 15.6936H18.8399V16.1675H75.272V15.6936Z" fill="#E93DB9"/>
<path d="M75.272 15.2197H18.8399V15.6936H75.272V15.2197Z" fill="#E93CB8"/>
<path d="M75.272 14.7505H18.8399V15.2243H75.272V14.7505Z" fill="#E83BB8"/>
<path d="M75.272 14.2766H18.8399V14.7505H75.272V14.2766Z" fill="#E83AB8"/>
<path d="M75.272 13.8027H18.8399V14.2766H75.272V13.8027Z" fill="#E739B8"/>
<path d="M75.272 13.3288H18.8399V13.8027H75.272V13.3288Z" fill="#E738B7"/>
<path d="M75.272 12.8549H18.8399V13.3288H75.272V12.8549Z" fill="#E637B7"/>
<path d="M75.272 11.7369H18.8399V12.8549H75.272V11.7369Z" fill="#E637B7"/>
<path d="M68.9981 28.935H50.1813V28.9534H68.9981V28.935Z" fill="#F95AC1"/>
<path d="M68.9981 28.4611H50.1813V28.935H68.9981V28.4611Z" fill="#F959C1"/>
<path d="M68.9981 27.9918H50.1813V28.4657H68.9981V27.9918Z" fill="#F858C0"/>
<path d="M68.9981 27.5179H50.1813V27.9918H68.9981V27.5179Z" fill="#F857C0"/>
<path d="M68.9981 27.044H50.1813V27.5179H68.9981V27.044Z" fill="#F756C0"/>
<path d="M68.9981 26.5702H50.1813V27.044H68.9981V26.5702Z" fill="#F655C0"/>
<path d="M68.9981 26.0963H50.1813V26.5702H68.9981V26.0963Z" fill="#F654BF"/>
<path d="M68.9981 25.627H50.1813V26.1009H68.9981V25.627Z" fill="#F553BF"/>
<path d="M68.9981 25.1531H50.1813V25.627H68.9981V25.1531Z" fill="#F552BF"/>
<path d="M68.9981 24.6792H50.1813V25.1531H68.9981V24.6792Z" fill="#F451BE"/>
<path d="M68.9981 24.2053H50.1813V24.6792H68.9981V24.2053Z" fill="#F450BE"/>
<path d="M68.9981 23.7314H50.1813V24.2053H68.9981V23.7314Z" fill="#F34FBE"/>
<path d="M68.9981 23.2621H50.1813V23.736H68.9981V23.2621Z" fill="#F34EBE"/>
<path d="M68.9981 22.7882H50.1813V23.2621H68.9981V22.7882Z" fill="#F24CBD"/>
<path d="M68.9981 22.3143H50.1813V22.7882H68.9981V22.3143Z" fill="#F14BBD"/>
<path d="M68.9981 21.8404H50.1813V22.3143H68.9981V21.8404Z" fill="#F14ABD"/>
<path d="M68.9981 21.3711H50.1813V21.845H68.9981V21.3711Z" fill="#F049BC"/>
<path d="M68.9981 20.8972H50.1813V21.3711H68.9981V20.8972Z" fill="#F048BC"/>
<path d="M68.9981 20.4234H50.1813V20.8973H68.9981V20.4234Z" fill="#EF47BC"/>
<path d="M68.9981 19.9495H50.1813V20.4234H68.9981V19.9495Z" fill="#EF46BB"/>
<path d="M68.9981 19.4756H50.1813V19.9495H68.9981V19.4756Z" fill="#EE45BB"/>
<path d="M68.9981 19.0063H50.1813V19.4802H68.9981V19.0063Z" fill="#ED44BB"/>
<path d="M68.9981 18.5324H50.1813V19.0063H68.9981V18.5324Z" fill="#ED43BB"/>
<path d="M68.9981 18.0585H50.1813V18.5324H68.9981V18.0585Z" fill="#EC42BA"/>
<path d="M68.9981 17.5846H50.1813V18.0585H68.9981V17.5846Z" fill="#EC41BA"/>
<path d="M68.9981 17.1153H50.1813V17.5892H68.9981V17.1153Z" fill="#EB40BA"/>
<path d="M68.9981 16.6414H50.1813V17.1153H68.9981V16.6414Z" fill="#EB3FB9"/>
<path d="M68.9981 16.4344H50.1813V16.6414H68.9981V16.4344Z" fill="#EA3EB9"/>
<path d="M51.8685 28.935H33.0516V28.9534H51.8685V28.935Z" fill="#F95AC1"/>
<path d="M51.8685 28.4611H33.0516V28.935H51.8685V28.4611Z" fill="#F959C1"/>
<path d="M51.8685 27.9918H33.0516V28.4657H51.8685V27.9918Z" fill="#F858C0"/>
<path d="M51.8685 27.5179H33.0516V27.9918H51.8685V27.5179Z" fill="#F857C0"/>
<path d="M51.8685 27.044H33.0516V27.5179H51.8685V27.044Z" fill="#F756C0"/>
<path d="M51.8685 26.5702H33.0516V27.044H51.8685V26.5702Z" fill="#F655C0"/>
<path d="M51.8685 26.0963H33.0516V26.5702H51.8685V26.0963Z" fill="#F654BF"/>
<path d="M51.8685 25.627H33.0516V26.1009H51.8685V25.627Z" fill="#F553BF"/>
<path d="M51.8685 25.1531H33.0516V25.627H51.8685V25.1531Z" fill="#F552BF"/>
<path d="M51.8685 24.6792H33.0516V25.1531H51.8685V24.6792Z" fill="#F451BE"/>
<path d="M51.8685 24.2053H33.0516V24.6792H51.8685V24.2053Z" fill="#F450BE"/>
<path d="M51.8685 23.7314H33.0516V24.2053H51.8685V23.7314Z" fill="#F34FBE"/>
<path d="M51.8685 23.2621H33.0516V23.736H51.8685V23.2621Z" fill="#F34EBE"/>
<path d="M51.8685 22.7882H33.0516V23.2621H51.8685V22.7882Z" fill="#F24CBD"/>
<path d="M51.8685 22.3143H33.0516V22.7882H51.8685V22.3143Z" fill="#F14BBD"/>
<path d="M51.8685 21.8404H33.0516V22.3143H51.8685V21.8404Z" fill="#F14ABD"/>
<path d="M51.8685 21.3711H33.0516V21.845H51.8685V21.3711Z" fill="#F049BC"/>
<path d="M51.8685 20.8972H33.0516V21.3711H51.8685V20.8972Z" fill="#F048BC"/>
<path d="M51.8685 20.4234H33.0516V20.8973H51.8685V20.4234Z" fill="#EF47BC"/>
<path d="M51.8685 19.9495H33.0516V20.4234H51.8685V19.9495Z" fill="#EF46BB"/>
<path d="M51.8685 19.4756H33.0516V19.9495H51.8685V19.4756Z" fill="#EE45BB"/>
<path d="M51.8685 19.0063H33.0516V19.4802H51.8685V19.0063Z" fill="#ED44BB"/>
<path d="M51.8685 18.5324H33.0516V19.0063H51.8685V18.5324Z" fill="#ED43BB"/>
<path d="M51.8685 18.0585H33.0516V18.5324H51.8685V18.0585Z" fill="#EC42BA"/>
<path d="M51.8685 17.5846H33.0516V18.0585H51.8685V17.5846Z" fill="#EC41BA"/>
<path d="M51.8685 17.1153H33.0516V17.5892H51.8685V17.1153Z" fill="#EB40BA"/>
<path d="M51.8685 16.6414H33.0516V17.1153H51.8685V16.6414Z" fill="#EB3FB9"/>
<path d="M51.8685 16.4344H33.0516V16.6414H51.8685V16.4344Z" fill="#EA3EB9"/>
<path d="M40.7729 31.7738H23.5234V32.0866H40.7729V31.7738Z" fill="#FD60C3"/>
<path d="M40.7729 31.2999H23.5234V31.7737H40.7729V31.2999Z" fill="#FC5FC3"/>
<path d="M40.7729 30.826H23.5234V31.2999H40.7729V30.826Z" fill="#FC5EC2"/>
<path d="M40.7729 30.3521H23.5234V30.826H40.7729V30.3521Z" fill="#FB5DC2"/>
<path d="M40.7729 29.8828H23.5234V30.3567H40.7729V29.8828Z" fill="#FA5CC2"/>
<path d="M40.7729 29.4089H23.5234V29.8828H40.7729V29.4089Z" fill="#FA5BC1"/>
<path d="M40.7729 28.935H23.5234V29.4089H40.7729V28.935Z" fill="#F95AC1"/>
<path d="M40.7729 28.4611H23.5234V28.935H40.7729V28.4611Z" fill="#F959C1"/>
<path d="M40.7729 27.9918H23.5234V28.4657H40.7729V27.9918Z" fill="#F858C0"/>
<path d="M40.7729 27.5179H23.5234V27.9918H40.7729V27.5179Z" fill="#F857C0"/>
<path d="M40.7729 27.044H23.5234V27.5179H40.7729V27.044Z" fill="#F756C0"/>
<path d="M40.7729 26.5701H23.5234V27.044H40.7729V26.5701Z" fill="#F655C0"/>
<path d="M40.7729 26.0963H23.5234V26.5701H40.7729V26.0963Z" fill="#F654BF"/>
<path d="M40.7729 25.627H23.5234V26.1009H40.7729V25.627Z" fill="#F553BF"/>
<path d="M40.7729 25.1531H23.5234V25.627H40.7729V25.1531Z" fill="#F552BF"/>
<path d="M40.7729 24.6792H23.5234V25.1531H40.7729V24.6792Z" fill="#F451BE"/>
<path d="M40.7729 24.2053H23.5234V24.6792H40.7729V24.2053Z" fill="#F450BE"/>
<path d="M40.7729 23.7314H23.5234V24.2053H40.7729V23.7314Z" fill="#F34FBE"/>
<path d="M40.7729 23.2621H23.5234V23.736H40.7729V23.2621Z" fill="#F34EBE"/>
<path d="M40.7729 22.7882H23.5234V23.2621H40.7729V22.7882Z" fill="#F24CBD"/>
<path d="M40.7729 22.3143H23.5234V22.7882H40.7729V22.3143Z" fill="#F14BBD"/>
<path d="M40.7729 21.8404H23.5234V22.3143H40.7729V21.8404Z" fill="#F14ABD"/>
<path d="M40.7729 21.3711H23.5234V21.845H40.7729V21.3711Z" fill="#F049BC"/>
<path d="M40.7729 20.8972H23.5234V21.3711H40.7729V20.8972Z" fill="#F048BC"/>
<path d="M40.7729 20.4234H23.5234V20.8972H40.7729V20.4234Z" fill="#EF47BC"/>
<path d="M40.7729 19.9495H23.5234V20.4234H40.7729V19.9495Z" fill="#EF46BB"/>
<path d="M40.7729 19.563H23.5234V19.9495H40.7729V19.563Z" fill="#EE45BB"/>
<path d="M32.941 34.1386H20.3887V38.353H32.941V34.1386Z" fill="#FF64C4"/>
<path d="M32.941 33.6647H20.3887V34.1386H32.941V33.6647Z" fill="#FF64C4"/>
<path d="M32.941 33.1908H20.3887V33.6647H32.941V33.1908Z" fill="#FE63C4"/>
<path d="M32.941 32.7169H20.3887V33.1908H32.941V32.7169Z" fill="#FE62C3"/>
<path d="M32.941 32.2476H20.3887V32.7215H32.941V32.2476Z" fill="#FD61C3"/>
<path d="M32.941 31.7738H20.3887V32.2476H32.941V31.7738Z" fill="#FD60C3"/>
<path d="M32.941 31.2999H20.3887V31.7737H32.941V31.2999Z" fill="#FC5FC3"/>
<path d="M32.941 30.826H20.3887V31.2999H32.941V30.826Z" fill="#FC5EC2"/>
<path d="M32.941 30.5223H20.3887V30.826H32.941V30.5223Z" fill="#FB5DC2"/>
<path d="M78.4112 34.1386H69.0028V38.3484H78.4112V34.1386Z" fill="#FF64C4"/>
<path d="M78.4112 33.6647H69.0028V34.1386H78.4112V33.6647Z" fill="#FF64C4"/>
<path d="M78.4112 33.1908H69.0028V33.6647H78.4112V33.1908Z" fill="#FE63C4"/>
<path d="M78.4112 32.7169H69.0028V33.1908H78.4112V32.7169Z" fill="#FE62C3"/>
<path d="M78.4112 32.2476H69.0028V32.7215H78.4112V32.2476Z" fill="#FD61C3"/>
<path d="M78.4112 31.7738H69.0028V32.2476H78.4112V31.7738Z" fill="#FD60C3"/>
<path d="M78.4112 31.2999H69.0028V31.7738H78.4112V31.2999Z" fill="#FC5FC3"/>
<path d="M78.4112 30.826H69.0028V31.2999H78.4112V30.826Z" fill="#FC5EC2"/>
<path d="M78.4112 30.3521H69.0028V30.826H78.4112V30.3521Z" fill="#FB5DC2"/>
<path d="M78.4112 29.8828H69.0028V30.3567H78.4112V29.8828Z" fill="#FA5CC2"/>
<path d="M78.4112 29.4089H69.0028V29.8828H78.4112V29.4089Z" fill="#FA5BC1"/>
<path d="M78.4112 28.935H69.0028V29.4089H78.4112V28.935Z" fill="#F95AC1"/>
<path d="M78.4112 28.4611H69.0028V28.935H78.4112V28.4611Z" fill="#F959C1"/>
<path d="M78.4112 27.9918H69.0028V28.4657H78.4112V27.9918Z" fill="#F858C0"/>
<path d="M78.4112 27.5179H69.0028V27.9918H78.4112V27.5179Z" fill="#F857C0"/>
<path d="M78.4112 27.044H69.0028V27.5179H78.4112V27.044Z" fill="#F756C0"/>
<path d="M78.4112 26.5701H69.0028V27.044H78.4112V26.5701Z" fill="#F655C0"/>
<path d="M78.4112 26.0963H69.0028V26.5701H78.4112V26.0963Z" fill="#F654BF"/>
<path d="M78.4112 25.627H69.0028V26.1009H78.4112V25.627Z" fill="#F553BF"/>
<path d="M78.4112 25.1531H69.0028V25.627H78.4112V25.1531Z" fill="#F552BF"/>
<path d="M78.4112 24.6792H69.0028V25.1531H78.4112V24.6792Z" fill="#F451BE"/>
<path d="M78.4112 24.2053H69.0028V24.6792H78.4112V24.2053Z" fill="#F450BE"/>
<path d="M78.4112 23.7314H69.0028V24.2053H78.4112V23.7314Z" fill="#F34FBE"/>
<path d="M78.4112 23.2621H69.0028V23.736H78.4112V23.2621Z" fill="#F34EBE"/>
<path d="M78.4112 22.7882H69.0028V23.2621H78.4112V22.7882Z" fill="#F24CBD"/>
<path d="M78.4112 22.6962H69.0028V22.7882H78.4112V22.6962Z" fill="#F14BBD"/>
</svg>
